<svg width="75" height="144" viewBox="0 0 75 144" fill="none" xmlns="http://www.w3.org/2000/svg">
<path fill-rule="evenodd" clip-rule="evenodd" d="M61.711 1.65181C60.3538 2.78493 46.1557 16.1019 30.1598 31.244C8.61529 51.6395 0.891408 59.3353 0.363858 60.932C-0.794305 64.4343 0.780621 67.2278 5.54403 70.1204C16.5685 76.8162 16.8744 77.0651 18.7296 80.851C20.0185 83.4805 20.4977 85.4111 20.4629 87.8291C20.4365 89.6677 17.7859 102.15 14.5736 115.568C11.3612 128.987 8.73252 140.748 8.73252 141.705C8.73252 143.889 10.062 144.442 12.0402 143.082C12.8782 142.505 27.0911 129.218 43.6249 113.554C74.7033 84.112 75.7146 82.9911 74.733 79.0883C74.1829 76.9005 71.8227 74.8761 65.7331 71.3712C57.4816 66.6214 54.4664 62.6111 54.4664 56.3835C54.4664 54.7346 57.0752 42.3192 60.2637 28.7926C63.4522 15.2659 66.0609 3.32448 66.0609 2.25567C66.0609 -0.532101 64.5742 -0.738533 61.711 1.65181Z" fill="url(#paint0_linear_201_2)"/>
<defs>
<linearGradient id="paint0_linear_201_2" x1="63" y1="4.5" x2="12.5" y2="141.5" gradientUnits="userSpaceOnUse">
<stop stop-color="#30CFD0"/>
<stop offset="0.0001" stop-color="#30CFD0"/>
<stop offset="0.9999" stop-color="#330867"/>
<stop offset="1" stop-color="#330867"/>
</linearGradient>
</defs>
</svg>
